<?xml version="1.0" standalone="no"?>
<!DOCTYPE svg PUBLIC "-//W3C//DTD SVG 20010904//EN"
 "http://www.w3.org/TR/2001/REC-SVG-20010904/DTD/svg10.dtd">
<svg version="1.0" xmlns="http://www.w3.org/2000/svg"
 width="170pt" height="40.000000pt" viewBox="0 0 279.000000 75.000000"
 preserveAspectRatio="xMidYMid meet">

<g transform="translate(0.000000,85.000000) scale(0.100000,-0.100000)"
fill="#257be5" stroke="none">
<path d="M200 738 c0 -6 -20 -144 -46 -306 -25 -162 -44 -295 -42 -297 2 -1
22 0 45 3 l41 4 7 58 c7 57 7 58 43 64 78 13 80 11 87 -49 l7 -54 47 6 c25 3
47 7 49 8 1 1 -19 131 -45 289 l-48 286 -72 0 c-49 0 -73 -4 -73 -12z m109
-359 c1 -23 -4 -27 -36 -32 -20 -4 -39 -4 -42 -2 -5 6 29 256 37 270 6 10 40
-185 41 -236z"/>
<path d="M480 464 l0 -286 78 6 c42 4 101 9 130 13 l53 5 -3 37 -3 36 -77 -2
-78 -3 0 240 0 240 -50 0 -50 0 0 -286z"/>
<path d="M772 513 c3 -261 5 -270 64 -298 44 -21 97 -19 144 5 66 34 70 49 70
305 l0 225 -45 0 -45 0 0 -225 0 -225 -26 -12 c-18 -9 -30 -9 -42 -1 -15 9
-17 38 -20 237 l-2 226 -51 0 -50 0 3 -237z"/>
<path d="M1120 485 l0 -265 45 0 45 0 0 110 0 110 33 0 c55 0 61 -9 65 -114
l4 -96 50 0 c42 0 49 3 44 16 -3 9 -6 54 -6 101 0 80 -1 86 -30 114 -23 24
-26 31 -14 36 26 10 44 60 44 120 0 103 -42 133 -190 133 l-90 0 0 -265z m166
181 c15 -11 19 -26 18 -71 0 -63 -10 -75 -61 -75 l-33 0 0 73 c0 41 3 77 7 80
11 12 48 8 69 -7z"/>
<path d="M1491 518 c-23 -128 -44 -245 -47 -261 -5 -26 -4 -27 39 -27 l44 0 9
48 9 47 55 0 55 0 9 -47 9 -48 50 0 c42 0 49 3 45 18 -3 9 -24 126 -49 260
l-44 242 -70 0 -71 0 -43 -232z m132 10 c9 -57 17 -109 17 -115 0 -8 -15 -13
-40 -13 -25 0 -40 5 -40 13 -1 27 34 217 40 217 3 0 13 -46 23 -102z"/>
<path d="M1812 488 l3 -263 48 -3 47 -3 0 117 0 117 60 -7 60 -7 0 41 0 40
-60 0 -60 0 0 78 0 77 75 -3 75 -4 0 41 0 41 -125 0 -125 0 2 -262z"/>
<path d="M2110 481 l0 -269 78 -7 c42 -3 99 -8 125 -11 l48 -6 -3 43 -3 44
-73 5 -73 5 -2 230 -2 230 -47 3 -48 3 0 -270z"/>
<path d="M2400 471 l0 -279 23 -6 c12 -3 34 -6 50 -6 l27 0 0 285 0 285 -50 0
-50 0 0 -279z"/>
<path d="M2555 733 c4 -10 27 -73 51 -140 l43 -123 -49 -137 c-28 -75 -50
-143 -50 -149 0 -7 18 -14 41 -16 47 -4 40 -14 85 125 15 48 31 87 34 87 4 0
22 -53 41 -117 l35 -118 49 -7 c27 -4 50 -6 51 -5 1 1 -22 76 -51 166 l-53
164 49 140 c27 77 49 142 49 144 0 1 -20 3 -44 3 l-45 0 -32 -100 c-19 -55
-36 -100 -39 -100 -3 0 -20 45 -39 100 l-32 100 -51 0 c-44 0 -49 -2 -43 -17z"/>
</g>
</svg>
