<?xml version="1.0" standalone="no"?>
<!DOCTYPE svg PUBLIC "-//W3C//DTD SVG 20010904//EN"
 "http://www.w3.org/TR/2001/REC-SVG-20010904/DTD/svg10.dtd">
<svg version="1.0" xmlns="http://www.w3.org/2000/svg"
 width="512.000000pt" height="512.000000pt" viewBox="0 0 512.000000 512.000000"
 preserveAspectRatio="xMidYMid meet">

<g transform="translate(0.000000,512.000000) scale(0.100000,-0.100000)"
fill="#257be5" stroke="none">
<path d="M1395 5110 c-55 -4 -116 -11 -136 -15 -30 -6 -122 -93 -632 -603
l-596 -597 -13 -75 c-10 -58 -13 -343 -13 -1270 0 -1307 -2 -1261 59 -1471
148 -509 566 -908 1085 -1033 187 -46 253 -47 1486 -44 l1160 3 108 23 c312
66 551 194 773 416 222 222 350 461 416 773 l23 108 3 1150 c2 790 0 1188 -8
1272 -39 435 -249 811 -599 1074 -221 166 -473 261 -766 289 -126 11 -2188 12
-2350 0z m2480 -518 c350 -102 602 -351 712 -707 l28 -90 0 -1225 0 -1225 -22
-81 c-50 -189 -135 -337 -267 -470 -133 -132 -281 -217 -470 -267 l-81 -22
-1225 0 -1225 0 -90 28 c-178 55 -308 130 -432 250 -126 121 -224 286 -275
462 l-23 80 -3 1205 c-2 1065 -1 1214 13 1283 80 397 384 705 781 791 59 12
242 14 1284 13 l1215 -2 80 -23z"/>
<path d="M2236 3972 c-6 -10 -1027 -2789 -1034 -2815 -4 -16 16 -17 359 -15
l362 3 81 263 80 262 473 0 472 0 40 -127 c22 -71 59 -190 82 -265 l43 -138
363 0 c200 0 363 3 363 8 0 4 -235 643 -522 1420 l-522 1412 -318 0 c-174 0
-319 -4 -322 -8z m477 -1282 c81 -261 147 -478 147 -482 0 -5 -138 -8 -306 -8
-302 0 -305 0 -299 20 4 11 67 217 141 458 168 545 155 505 163 495 4 -4 74
-222 154 -483z"/>
</g>
</svg>
